<svg id="a6142cfc-b651-4aa1-90f7-709f258393e2" data-name="Layer 1" xmlns="http://www.w3.org/2000/svg" viewBox="0 0 792.67 266.78"><title>react-native</title><rect id="f6397ad0-d289-4636-9e18-1b9d520fc383" data-name="rect4486" width="266.78" height="266.78" fill="#222" fill-opacity="0"/><circle id="b40f0ac1-bfc0-4775-bf78-14766edbdd8e" data-name="circle4488" cx="143.83" cy="133.22" r="22.31" fill="#05a5cd"/><path id="ab64ca52-38db-42e7-89fe-8713e5079845" data-name="path4490" d="M143.83,87.87c29.95,0,57.77,4.3,78.75,11.52,25.27,8.7,40.81,21.89,40.81,33.83,0,12.45-16.47,26.46-43.61,35.45-20.52,6.8-47.52,10.35-75.95,10.35-29.15,0-56.75-3.33-77.49-10.42-26.26-9-42.07-23.17-42.07-35.38,0-11.84,14.84-24.93,39.76-33.62,21-7.34,49.56-11.73,79.8-11.73Z" fill="none" stroke="#05a5d1" stroke-miterlimit="10" stroke-width="10.67"/><path id="bce6c9cf-adb8-4d8a-b1d7-e6ce7263ebec" data-name="path4492" d="M104.35,110.68c15-25.94,32.58-47.9,49.32-62.46C173.83,30.67,193,23.8,203.37,29.76c10.78,6.22,14.69,27.49,8.92,55.49-4.36,21.17-14.78,46.34-29,71-14.56,25.25-31.23,47.49-47.74,61.92C114.68,236.4,94.48,243,83.91,236.91,73.65,231,69.72,211.6,74.64,185.67,78.8,163.77,89.24,136.88,104.35,110.68Z" fill="none" stroke="#05a5cd" stroke-miterlimit="10" stroke-width="10.67"/><path id="b2b5c934-febd-4d1d-b643-5c5e70ca1e9e" data-name="path4494" d="M104.39,156.28c-15-25.92-25.23-52.15-29.49-73.92-5.13-26.23-1.5-46.29,8.84-52.28,10.77-6.23,31.14,1,52.53,20,16.16,14.35,32.76,35.94,47,60.54,14.61,25.23,25.55,50.78,29.81,72.29,5.39,27.22,1,48-9.54,54.13-10.25,5.94-29-.35-49-17.56-16.9-14.54-35-37-50.13-63.19Z" fill="none" stroke="#05a5d1" stroke-miterlimit="10" stroke-width="10.67"/><g id="a3757723-503d-4fea-8c6d-6a5cf0fd9890" data-name="text5042" style="isolation:isolate"><g style="isolation:isolate"><path d="M392.5,62a58.62,58.62,0,0,1,15.75,2.07,38.15,38.15,0,0,1,13,6.32,30.52,30.52,0,0,1,8.87,11,35.36,35.36,0,0,1,3.3,15.75q0,12.84-6.61,22.27t-19.62,12.07v.38a30,30,0,0,1,11,3.49,22,22,0,0,1,7.07,6.51,26.86,26.86,0,0,1,4,9.15,67.62,67.62,0,0,1,1.61,11.22c.12,2.27.25,5,.37,8.31s.38,6.57.76,9.9a61.23,61.23,0,0,0,1.79,9.44,18.09,18.09,0,0,0,3.3,6.88H422.87a16.44,16.44,0,0,1-1.79-4.62,39.55,39.55,0,0,1-.94-5.66q-.28-2.93-.48-5.75c-.12-1.89-.25-3.52-.37-4.91-.26-4.78-.66-9.53-1.23-14.25a39.23,39.23,0,0,0-3.58-12.64,22.35,22.35,0,0,0-7.93-9q-5.19-3.39-14.24-3H343.63v59.81H330.8V62Zm-.95,64a34.52,34.52,0,0,0,11.13-1.79,27.92,27.92,0,0,0,9.25-5.19,25.58,25.58,0,0,0,6.32-8.21,24.82,24.82,0,0,0,2.36-11q0-12.45-7.17-19.62t-21.89-7.17H343.63v53Z" fill="#05a5d1"/><path d="M463.15,164.54a36.63,36.63,0,0,0,5.76,12.36,32.86,32.86,0,0,0,10,9.06,28,28,0,0,0,14.53,3.58q13,0,20.37-6.79T524,164.64h11.89Q532.11,181.25,522,190.3t-28.58,9q-11.52,0-19.91-4a36.73,36.73,0,0,1-13.68-11.13A48.52,48.52,0,0,1,452,167.75,74.58,74.58,0,0,1,449.47,148,70.59,70.59,0,0,1,452,129.17a50.66,50.66,0,0,1,7.83-16.51A39.36,39.36,0,0,1,473.53,101q8.4-4.44,19.91-4.43,11.69,0,20,4.71a40.07,40.07,0,0,1,13.49,12.36,51.42,51.42,0,0,1,7.45,17.55,77,77,0,0,1,1.89,20.09H461.36A52.93,52.93,0,0,0,463.15,164.54ZM522,128.22a35.62,35.62,0,0,0-6.13-11,30.38,30.38,0,0,0-9.62-7.74,27.58,27.58,0,0,0-12.83-2.92,27.94,27.94,0,0,0-13,2.92,30.42,30.42,0,0,0-9.63,7.74,38.33,38.33,0,0,0-6.32,11.13,54.47,54.47,0,0,0-3.11,12.92h63A43.27,43.27,0,0,0,522,128.22Z" fill="#05a5d1"/><path d="M554.75,114.45A28,28,0,0,1,563,104.26a34.85,34.85,0,0,1,12.17-5.85,59.56,59.56,0,0,1,15.47-1.88,68.73,68.73,0,0,1,12.83,1.22,31,31,0,0,1,11.51,4.62,25.37,25.37,0,0,1,8.31,9.53q3.19,6.13,3.2,15.95v51.69c0,4.79,2.33,7.17,7,7.17a9.28,9.28,0,0,0,3.78-.75v10c-1.39.25-2.61.44-3.68.56a34.83,34.83,0,0,1-4.06.19,17.92,17.92,0,0,1-7.26-1.22A9.76,9.76,0,0,1,618,192a13,13,0,0,1-2-5.38,46.83,46.83,0,0,1-.47-6.89h-.38a80.07,80.07,0,0,1-6.51,8.4,32.15,32.15,0,0,1-7.36,6.13A33.66,33.66,0,0,1,592,198a50.65,50.65,0,0,1-12.36,1.32,48.75,48.75,0,0,1-12.74-1.6,28.5,28.5,0,0,1-10.37-5.09,24.31,24.31,0,0,1-7-8.87A29.49,29.49,0,0,1,547,171.05q0-10.19,4.53-15.94a28.43,28.43,0,0,1,12-8.77,68.52,68.52,0,0,1,16.79-4.25q9.34-1.23,19-2.36,3.78-.37,6.61-.94a11.61,11.61,0,0,0,4.71-2,9.25,9.25,0,0,0,2.93-3.87,16.66,16.66,0,0,0,1-6.41,21.57,21.57,0,0,0-2-9.91,15.62,15.62,0,0,0-5.47-6.13,22.14,22.14,0,0,0-8.11-3.12,55.46,55.46,0,0,0-9.91-.84q-11.31,0-18.49,5.37t-7.54,17.27H551.17A39.67,39.67,0,0,1,554.75,114.45Zm59.44,29.06a6.79,6.79,0,0,1-4.34,3,44.29,44.29,0,0,1-5.66,1.33q-7.55,1.32-15.57,2.35A85.35,85.35,0,0,0,574,153.32a28.51,28.51,0,0,0-10.85,5.94q-4.24,3.87-4.24,11a17.26,17.26,0,0,0,1.79,8,19.26,19.26,0,0,0,4.81,6,21,21,0,0,0,7,3.87,25.51,25.51,0,0,0,8.11,1.32,41,41,0,0,0,13-2.07,32.16,32.16,0,0,0,10.85-6A28.73,28.73,0,0,0,614.57,159V143.51Z" fill="#05a5d1"/><path d="M709.85,112.75q-6.61-6.23-18.49-6.22a30.07,30.07,0,0,0-14.91,3.58,32.79,32.79,0,0,0-10.66,9.43,42.69,42.69,0,0,0-6.41,13.31,54.22,54.22,0,0,0,0,30.37,42.53,42.53,0,0,0,6.41,13.3A32.7,32.7,0,0,0,676.45,186a30.07,30.07,0,0,0,14.91,3.58,26.41,26.41,0,0,0,10.37-2.07,27.82,27.82,0,0,0,8.68-5.76,30.66,30.66,0,0,0,6.23-8.77,32.64,32.64,0,0,0,3-11.13h11.88q-2.44,17.73-13,27.64t-27.17,9.9a45.68,45.68,0,0,1-19.72-4,41.85,41.85,0,0,1-14.43-11,48.05,48.05,0,0,1-8.87-16.32,67.11,67.11,0,0,1,0-39.81,48.05,48.05,0,0,1,8.87-16.32,42.83,42.83,0,0,1,14.43-11.13,44.7,44.7,0,0,1,19.72-4.15q15.66,0,26.51,8.3t12.92,25.09H718.9Q716.46,119,709.85,112.75Z" fill="#05a5d1"/><path d="M786.83,99.36v10H767V175q0,5.87,1.6,9.16t8,3.67a91.57,91.57,0,0,0,10.19-.56v10c-1.77,0-3.53.06-5.29.19s-3.52.19-5.28.19q-11.88,0-16.6-4.63T755.13,176v-66.6h-17v-10h17V70.11H767V99.36Z" fill="#05a5d1"/></g></g></svg>